<svg t="1584176902423" class="icon" viewBox="0 0 1024 1024" version="1.1" xmlns="http://www.w3.org/2000/svg" p-id="3091" width="32" height="32"><path d="M516.9408 928.98304c-216.17152 0-392.04352-175.86688-392.04352-392.04352S300.76416 144.896 516.9408 144.896s392.04352 175.86688 392.04352 392.04352-175.872 392.04352-392.04352 392.04352z m0-767.97952c-207.29344 0-375.936 168.64256-375.936 375.936s168.64256 375.936 375.936 375.936 375.936-168.64256 375.936-375.936-168.64256-375.936-375.936-375.936z" fill="#6C0000" p-id="3092"></path><path d="M516.9408 850.944c-173.14304 0-314.00448-140.86144-314.00448-314.00448 0-173.15328 140.86144-314.01472 314.00448-314.01472 173.15328 0 314.01472 140.86144 314.01472 314.01472 0 173.14304-140.86144 314.00448-314.01472 314.00448z m0-611.91168c-164.25984 0-297.89696 133.64736-297.89696 297.91232s133.63712 297.89696 297.89696 297.89696 297.91232-133.63712 297.91232-297.89696-133.65248-297.91232-297.91232-297.91232z" fill="#6C0000" p-id="3093"></path><path d="M516.9408 771.2512c-129.2032 0-234.31168-105.10848-234.31168-234.31168 0-129.21856 105.10848-234.32704 234.31168-234.32704 129.21856 0 234.32704 105.10848 234.32704 234.32704-0.00512 129.2032-105.1136 234.31168-234.32704 234.31168z m0-452.5312c-120.30976 0-218.20416 97.8944-218.20416 218.21952 0 120.30976 97.8944 218.20416 218.20416 218.20416 120.32512 0 218.21952-97.8944 218.21952-218.20416 0-120.32-97.89952-218.21952-218.21952-218.21952z" fill="#6C0000" p-id="3094"></path><path d="M90.27072 800.8704m-41.19552 0a41.19552 41.19552 0 1 0 82.39104 0 41.19552 41.19552 0 1 0-82.39104 0Z" fill="#FFC700" p-id="3095"></path><path d="M90.27072 850.11968c-27.1616 0-49.24928-22.08768-49.24928-49.24928s22.08768-49.24928 49.24928-49.24928 49.24928 22.08768 49.24928 49.24928-22.08768 49.24928-49.24928 49.24928z m0-82.39616a33.18784 33.18784 0 0 0-33.14176 33.14176c0 18.26816 14.8736 33.14176 33.14176 33.14176s33.14176-14.8736 33.14176-33.14176a33.18784 33.18784 0 0 0-33.14176-33.14176z" fill="#6C0000" p-id="3096"></path><path d="M897.00864 854.58944m-32.24064 0a32.24064 32.24064 0 1 0 64.48128 0 32.24064 32.24064 0 1 0-64.48128 0Z" fill="#FFC700" p-id="3097"></path><path d="M897.00864 894.88384c-22.21568 0-40.28928-18.0736-40.28928-40.28928s18.0736-40.28928 40.28928-40.28928 40.28928 18.0736 40.28928 40.28928-18.0736 40.28928-40.28928 40.28928z m0-64.47616a24.20736 24.20736 0 0 0-24.18688 24.18688 24.20736 24.20736 0 0 0 24.18688 24.18688 24.20736 24.20736 0 0 0 24.18688-24.18688 24.2176 24.2176 0 0 0-24.18688-24.18688zM516.9408 685.66016c-82.01216 0-148.72064-66.70848-148.72064-148.72064s66.70848-148.73088 148.72064-148.73088 148.73088 66.71872 148.73088 148.73088-66.71872 148.72064-148.73088 148.72064z m0-281.344c-73.11872 0-132.61312 59.4944-132.61312 132.62848 0 73.11872 59.4944 132.61312 132.61312 132.61312 73.13408 0 132.62848-59.4944 132.62848-132.61312-0.00512-73.1392-59.49952-132.62848-132.62848-132.62848z" fill="#6C0000" p-id="3098"></path><path d="M237.8752 250.35776m-99.39456 0a99.39456 99.39456 0 1 0 198.78912 0 99.39456 99.39456 0 1 0-198.78912 0Z" fill="#00DFD5" p-id="3099"></path><path d="M237.8752 357.80608c-59.24352 0-107.4432-48.19968-107.4432-107.4432s48.19968-107.4432 107.4432-107.4432 107.4432 48.19968 107.4432 107.4432-48.19968 107.4432-107.4432 107.4432z m0-198.784c-50.36544 0-91.33568 40.97536-91.33568 91.33568s40.97536 91.33568 91.33568 91.33568S329.216 300.72832 329.216 250.36288s-40.97536-91.3408-91.3408-91.3408z" fill="#6C0000" p-id="3100"></path></svg>