<?xml version="1.0" standalone="no"?>
<!DOCTYPE svg PUBLIC "-//W3C//DTD SVG 1.1//EN" 
  "http://www.w3.org/Graphics/SVG/1.1/DTD/svg11.dtd">
<svg width="480px" height="240px" 
     version="1.1"
     xmlns="http://www.w3.org/2000/svg">
  <desc>Pascal's triangle
  </desc>
  <title>Pascal's triangle
  </title>
  <g stroke="red" stroke-width="1">
    <line x1="230" y1="25"  x2="290" y2="5"/>
    <line x1="210" y1="45"  x2="300" y2="15"/>
    <line x1="190" y1="65"  x2="310" y2="25"/>
    <line x1="170" y1="85"  x2="320" y2="35"/>
    <line x1="150" y1="105" x2="330" y2="45"/>
    <line x1="130" y1="125" x2="340" y2="55"/>
    <line x1="110" y1="145" x2="350" y2="65"/>
    <line x1="90" y1="165" x2="360" y2="75"/>
    <line x1="70" y1="185" x2="370" y2="85"/>
    <line x1="50" y1="205" x2="380" y2="95"/>
    <line x1="30"  y1="225" x2="390" y2="105"/>
  </g>
  <g font-size="16" font-family="serif" font-weight="bold" text-align="center" text-anchor="middle">
    <text x="260" y="20">1</text>
    <text x="240" y="40">1</text>
    <text x="280" y="40">1</text>
    <text x="220" y="60">1</text>
    <text x="260" y="60">2</text>
    <text x="300" y="60">1</text>
    <text x="200" y="80">1</text>
    <text x="240" y="80">3</text>
    <text x="280" y="80">3</text>  
    <text x="320" y="80">1</text>  
    <text x="180" y="100">1</text>
    <text x="220" y="100">4</text>
    <text x="260" y="100">6</text>  
    <text x="300" y="100">4</text>  
    <text x="340" y="100">1</text>
    <text x="160" y="120">1</text>
    <text x="200" y="120">5</text>  
    <text x="240" y="120">10</text>  
    <text x="280" y="120">10</text>
    <text x="320" y="120">5</text>
    <text x="360" y="120">1</text>  
    <text x="140" y="140">1</text>  
    <text x="180" y="140">6</text>
    <text x="220" y="140">15</text>
    <text x="260" y="140">20</text>  
    <text x="300" y="140">15</text>  
    <text x="340" y="140">6</text>
    <text x="380" y="140">1</text>  
    <text x="120" y="160">1</text>
    <text x="160" y="160">7</text>
    <text x="200" y="160">21</text>  
    <text x="240" y="160">35</text>  
    <text x="280" y="160">35</text>
    <text x="320" y="160">21</text>
    <text x="360" y="160">7</text>  
    <text x="400" y="160">1</text>  
    <text x="100" y="180">1</text>
    <text x="140" y="180">8</text>
    <text x="180" y="180">28</text>
    <text x="220" y="180">56</text>
    <text x="260" y="180">70</text>  
    <text x="300" y="180">56</text>  
    <text x="340" y="180">28</text>
    <text x="380" y="180">8</text>  
    <text x="420" y="180">1</text>  
    <text x="80" y="200">1</text>
    <text x="120" y="200">9</text>
    <text x="160" y="200">36</text>
    <text x="200" y="200">84</text>  
    <text x="240" y="200">126</text>  
    <text x="280" y="200">126</text>
    <text x="320" y="200">84</text>
    <text x="360" y="200">36</text>  
    <text x="400" y="200">9</text>  
    <text x="440" y="200">1</text>  
    <text x="60"  y="220">1</text>
    <text x="100" y="220">10</text>
    <text x="140" y="220">45</text>
    <text x="180" y="220">120</text>
    <text x="220" y="220">210</text>
    <text x="260" y="220">252</text>  
    <text x="300" y="220">210</text>  
    <text x="340" y="220">120</text>
    <text x="380" y="220">45</text>  
    <text x="420" y="220">10</text>  
    <text x="460" y="220">1</text>  
  </g>
  <g fill="red" font-size="16" font-family="serif" font-weight="bold" text-align="center" text-anchor="middle">
    <text x="220" y="30">1</text>
    <text x="200" y="50">1</text>
    <text x="180" y="70">2</text>
    <text x="160" y="90">3</text>
    <text x="140" y="110">5</text>
    <text x="120" y="130">8</text>
    <text x="100" y="150">13</text>  
    <text x="80" y="170">21</text>
    <text x="60" y="190">34</text>
    <text x="40" y="210">55</text>
    <text x="20" y="230">89</text>
  </g>
</svg>