<?xml version="1.0" encoding="UTF-8"?>
<svg width="386px" height="649px" viewBox="0 0 386 649" version="1.1" xmlns="http://www.w3.org/2000/svg" xmlns:xlink="http://www.w3.org/1999/xlink">
    <!-- Generator: Sketch 58 (84663) - https://sketch.com -->
    <title>形状结合</title>
    <desc>Created with Sketch.</desc>
    <g id="页面-1" stroke="none" stroke-width="1" fill="none" fill-rule="evenodd">
        <g id="画板" transform="translate(-651.000000, -275.000000)" fill="#5E666E">
            <path d="M1029.5,275 C1033.64214,275 1037,278.357864 1037,282.5 L1037,916.5 C1037,920.642136 1033.64214,924 1029.5,924 C1029.41743,924 1029.33518,923.998666 1029.25326,923.996018 C1029.16912,923.998683 1029.08471,924 1029,924 L659,924 C658.915286,924 658.83088,923.998683 658.746801,923.996069 C658.664821,923.998666 658.582566,924 658.5,924 C654.357864,924 651,920.642136 651,916.5 L651,282.5 C651,278.357864 654.357864,275 658.5,275 C662.642136,275 666,278.357864 666,282.5 L666,906 L1022,906 L1022,282.5 C1022,278.357864 1025.35786,275 1029.5,275 Z" id="形状结合"></path>
        </g>
    </g>
</svg>